:SAMPLES-PER-SECOND 30
:FULLY-SPECIFIED
:DEGREES
310
root  -43.1521 38.478 1.00417 36.0863 -87.5764 -43.1182
RightUpLeg  4.31401 1.19915 -2.52342
RightLeg  27.8898 3.01184 1.4946
RightFoot  -22.536 -0.0195594 1.36372
RightToes  -4.65661e-009 0 -3.6325e-017
Spine  11.9129 0.226259 11.7905
Spine1  6.28586 2.89963 -7.02447
HEad  -6.72332 -2.88892 -6.47803
LeftShoulder1  -0.499888 4.79106 -32.682
LeftArm  0.695787 11.1947 -40.6629
LeftForeArm  26.1864 -31.2631 -5.37746
LeftHand  -0.0263784 5.64351 1.28571
RightShoulder  -0.537314 -5.08465 27.1999
RightArm  22.7933 13.6878 53.6491
RightForeArm  7.26312 19.1061 5.12197
RightHand  -0.236693 5.25699 -2.89327
LeftUpLeg  -18.4586 6.45343 6.97485
LeftLeg  7.8483 -1.68132 0.492506
LeftFoot  11.3566 0.634766 -3.4926
LeftToes  9.86798e-010 -1.28139e-010 1.4132e-011
311
root  -41.8437 38.6638 0.419897 24.2925 -86.9737 -30.2335
RightUpLeg  1.18902 -0.638587 -2.08142
RightLeg  27.3616 3.49041 1.73109
RightFoot  -21.0151 -0.150397 -0.0987937
RightToes  -4.65661e-009 0 -3.6325e-017
Spine  12.2182 0.338276 11.4294
Spine1  5.94714 2.82084 -6.34932
HEad  -5.30385 -1.18823 -7.16231
LeftShoulder1  -0.464448 4.715 -32.211
LeftArm  -0.948397 10.6856 -41.6023
LeftForeArm  28.3455 -35.2762 -6.26106
LeftHand  -0.0246937 5.62723 1.88342
RightShoulder  -0.505863 -4.99927 26.9998
RightArm  25.743 16.4143 53.8909
RightForeArm  6.72463 19.5671 5.16809
RightHand  -0.160396 5.52179 -2.02294
LeftUpLeg  -17.8898 7.27312 7.13725
LeftLeg  1.48399 -1.21295 0.490166
LeftFoot  6.53399 0.604802 -4.14485
LeftToes  9.86798e-010 -1.28139e-010 1.4132e-011
312
root  -40.6713 38.8888 -0.0711467 13.3143 -86.1767 -18.1973
RightUpLeg  -1.85333 -2.5849 -1.98315
RightLeg  27.1677 4.04518 2.02259
RightFoot  -18.7024 -0.195074 -1.06086
RightToes  -4.65661e-009 0 -3.6325e-017
Spine  12.2143 0.405445 10.7399
Spine1  5.52906 2.5734 -5.47946
HEad  -5.74198 -0.519958 -7.48449
LeftShoulder1  -0.436578 4.63885 -32.3183
LeftArm  -0.987906 10.6019 -41.3404
LeftForeArm  29.9388 -39.2834 -7.27032
LeftHand  -0.027423 5.36028 2.18979
RightShoulder  -0.475211 -4.92102 26.672
RightArm  27.4765 18.3258 54.2089
RightForeArm  7.38349 18.8689 5.50818
RightHand  -0.12864 5.39975 -1.69644
LeftUpLeg  -16.9071 7.28785 7.12565
LeftLeg  -3.49083 3.68368 0.109858
LeftFoot  2.37493 0.782288 -6.57201
LeftToes  9.86798e-010 -1.28139e-010 1.4132e-011
313
root  -39.571 39.1856 -0.485414 3.83606 -84.6372 -8.1622
RightUpLeg  -3.4103 -4.5123 -2.03501
RightLeg  25.4931 4.0822 1.89564
RightFoot  -16.0304 -0.177028 -1.6759
RightToes  -4.65661e-009 0 -3.6325e-017
Spine  12.4033 0.271941 10.5122
Spine1  5.40534 2.41285 -5.42498
HEad  -7.76382 -1.21808 -7.64836
LeftShoulder1  -0.376017 4.49294 -31.8817
LeftArm  -0.0981098 10.2672 -41.3822
LeftForeArm  31.2366 -42.2493 -8.08655
LeftHand  -0.0374622 4.67223 2.33477
RightShoulder  -0.4618 -4.89342 26.3606
RightArm  27.3201 18.8496 54.219
RightForeArm  8.32057 17.9183 5.88257
RightHand  -0.099446 4.67191 -1.44128
LeftUpLeg  -16.7355 7.58857 6.60014
LeftLeg  -2.42371 10.1287 -0.95288
LeftFoot  2.04331 1.02993 -8.84507
LeftToes  9.86798e-010 -1.28139e-010 1.4132e-011
314
root  -38.5438 39.4975 -0.867726 -1.87491 -81.5128 -1.78574
RightUpLeg  -4.35817 -7.46824 -2.23245
RightLeg  23.049 3.79625 1.54336
RightFoot  -13.2945 -0.125821 -2.07479
RightToes  -4.65661e-009 0 -3.6325e-017
Spine  12.4119 -0.0304086 10.3379
Spine1  4.87889 2.02129 -5.3033
HEad  -8.03978 -2.76891 -7.02339
LeftShoulder1  -0.296895 4.28869 -31.7006
LeftArm  1.72109 9.31724 -41.3333
LeftForeArm  32.1766 -43.7179 -8.51115
LeftHand  -0.0359886 4.75911 2.03222
RightShoulder  -0.435567 -4.81317 26.347
RightArm  25.3642 17.4401 53.0522
RightForeArm  8.71939 17.3011 5.99722
RightHand  -0.109024 4.9316 -1.52278
LeftUpLeg  -17.6361 6.94677 5.08363
LeftLeg  2.78743 10.8407 -0.224891
LeftFoot  0.94652 0.687861 -6.44537
LeftToes  9.86798e-010 -1.28139e-010 1.4132e-011
315
root  -37.5954 39.7428 -1.16488 -5.52997 -78.8712 2.39108
RightUpLeg  -5.088 -9.7454 -2.82967
RightLeg  20.7534 3.4368 1.28681
RightFoot  -11.0427 -0.0689243 -2.22942
RightToes  -4.65661e-009 0 -3.6325e-017
Spine  12.308 0.0940754 10.738
Spine1  4.54407 2.29213 -5.8928
HEad  -6.88911 -3.8765 -6.75828
LeftShoulder1  -0.250743 4.17341 -31.2987
LeftArm  3.12839 8.81682 -41.6846
LeftForeArm  33.9023 -45.0591 -8.85183
LeftHand  -0.0291298 5.04439 1.08663
RightShoulder  -0.392012 -4.68832 26.1174
RightArm  22.6712 14.7986 51.7632
RightForeArm  9.03562 16.6511 6.01857
RightHand  -0.154265 5.08672 -2.01473
LeftUpLeg  -17.466 6.97645 3.32488
LeftLeg  8.18992 7.4019 0.551357
LeftFoot  -0.932623 0.497993 -5.39771
LeftToes  9.86798e-010 -1.28139e-010 1.4132e-011
316
root  -36.6758 39.9392 -1.44276 -8.28104 -76.5062 5.73041
RightUpLeg  -5.90307 -11.0007 -3.64084
RightLeg  18.5907 2.51221 1.14868
RightFoot  -8.96932 -0.0135352 -2.28023
RightToes  -4.65661e-009 0 -3.6325e-017
Spine  11.9267 0.446462 11.3203
Spine1  4.55015 2.98483 -7.14044
HEad  -7.91546 -5.27128 -6.67607
LeftShoulder1  -0.184856 4.0035 -30.8977
LeftArm  4.18443 8.96919 -41.9011
LeftForeArm  34.5081 -46.1632 -9.20927
LeftHand  -0.0305184 4.75614 1.12946
RightShoulder  -0.460824 -4.88834 26.4042
RightArm  20.6586 12.2411 50.1808
RightForeArm  10.344 15.5189 6.23363
RightHand  -0.113546 4.75085 -1.59143
LeftUpLeg  -16.7579 6.92687 1.51252
LeftLeg  13.4857 4.25669 1.30625
LeftFoot  -2.75295 0.309634 -3.89851
LeftToes  9.86798e-010 -1.28139e-010 1.4132e-011
317
root  -35.7794 40.0798 -1.692 -10.6154 -74.3641 8.61856
RightUpLeg  -6.86722 -11.5398 -4.64214
RightLeg  16.9837 1.09421 1.05761
RightFoot  -7.17293 0.0268827 -2.08694
RightToes  -4.65661e-009 0 -3.6325e-017
Spine  11.936 0.730616 11.4305
Spine1  4.09774 3.58591 -8.35329
HEad  -7.92465 -5.45727 -7.01693
LeftShoulder1  -0.226996 4.12175 -30.6036
LeftArm  3.87304 10.4966 -42.0706
LeftForeArm  35.6801 -47.8346 -9.74891
LeftHand  -0.0284703 5.40899 1.4309
RightShoulder  -0.530821 -5.0676 27.1363
RightArm  20.0247 10.0948 48.605
RightForeArm  11.9071 13.6724 6.93149
RightHand  -0.0637289 4.44318 -1.03999
LeftUpLeg  -15.0338 6.38196 0.196157
LeftLeg  17.8133 4.44927 1.95538
LeftFoot  -4.79341 0.190116 -2.83859
LeftToes  9.86798e-010 -1.28139e-010 1.4132e-011
318
root  -34.9095 40.1792 -1.92871 -11.7029 -71.8611 10.4685
RightUpLeg  -7.93456 -12.1991 -5.73806
RightLeg  15.4632 -0.467436 1.09558
RightFoot  -5.70353 0.0425121 -1.64421
RightToes  -4.65661e-009 0 -3.6325e-017
Spine  10.9937 1.1323 11.3215
Spine1  4.59724 4.17854 -9.13397
HEad  -8.1609 -5.6238 -7.56577
LeftShoulder1  -0.22187 4.10168 -30.9101
LeftArm  3.79495 11.676 -41.6694
LeftForeArm  35.4085 -48.6164 -10.077
LeftHand  -0.0336922 4.79428 1.7629
RightShoulder  -0.587557 -5.22055 27.4723
RightArm  19.2021 8.22875 47.345
RightForeArm  14.1487 11.1721 7.80813
RightHand  -0.050692 4.19396 -0.886544
LeftUpLeg  -12.6559 6.58076 -0.864595
LeftLeg  20.538 5.98333 2.79731
LeftFoot  -6.43169 0.131107 -2.14786
LeftToes  9.86798e-010 -1.28139e-010 1.4132e-011
319
root  -34.0936 40.2396 -2.12724 -10.9079 -68.873 10.1676
RightUpLeg  -8.58367 -12.8521 -6.5621
RightLeg  14.0824 -2.78338 1.16849
RightFoot  -4.18223 0.0695504 -1.55637
RightToes  -4.65661e-009 0 -3.6325e-017
Spine  10.1784 1.19009 11.3108
Spine1  4.75464 4.31037 -9.51852
HEad  -8.03252 -5.74844 -7.93595
LeftShoulder1  -0.302685 4.29986 -31.9348
LeftArm  3.343 12.8579 -40.7613
LeftForeArm  35.7923 -48.5883 -10.0398
LeftHand  -0.0314566 4.80344 1.28069
RightShoulder  -0.540842 -5.09528 27.1839
RightArm  17.7786 5.80781 46.811
RightForeArm  17.1597 8.52039 8.35099
RightHand  -0.0147299 3.9025 -0.456219
LeftUpLeg  -9.48355 7.93437 -1.00469
LeftLeg  21.8122 7.17981 3.47277
LeftFoot  -7.62709 0.0889524 -1.35648
LeftToes  9.86798e-010 -1.28139e-010 1.4132e-011
320
root  -33.2696 40.2653 -2.33013 -9.8779 -65.481 9.69812
RightUpLeg  -9.35135 -13.7086 -7.47034
RightLeg  13.0189 -5.32724 1.28411
RightFoot  -2.75482 0.102093 -1.61312
RightToes  -4.65661e-009 0 -3.6325e-017
Spine  9.22679 1.15301 10.8372
Spine1  4.89993 4.27877 -9.90367
HEad  -8.21885 -5.8611 -7.86203
LeftShoulder1  -0.349307 4.4353 -31.3572
LeftArm  2.77824 14.0116 -41.1613
LeftForeArm  35.1753 -47.393 -9.61798
LeftHand  -0.0388013 3.91187 1.39658
RightShoulder  -0.619907 -5.29293 27.9265
RightArm  17.3947 3.60622 46.0653
RightForeArm  19.0902 6.34132 8.69956
RightHand  -0.0490379 3.28512 -0.891705
LeftUpLeg  -5.94105 10.5413 -0.315024
LeftLeg  21.3114 6.67672 3.19497
LeftFoot  -8.60048 0.0802307 -1.18534
LeftToes  9.86798e-010 -1.28139e-010 1.4132e-011
321
root  -32.4437 40.2733 -2.55326 -8.84601 -61.2155 9.15952
RightUpLeg  -9.93761 -15.0022 -8.61485
RightLeg  12.2811 -8.18883 1.33437
RightFoot  -1.54103 0.103565 -1.3295
RightToes  -4.65661e-009 0 -3.6325e-017
Spine  8.42654 1.11669 9.27631
Spine1  4.95147 3.85089 -8.84577
HEad  -8.35004 -5.89866 -7.7454
LeftShoulder1  -0.376454 4.49932 -31.6794
LeftArm  2.48081 14.522 -41.1979
LeftForeArm  35.6023 -45.9816 -9.06492
LeftHand  -0.0284358 4.79248 0.653054
RightShoulder  -0.671793 -5.43379 28.1226
RightArm  16.6599 0.567307 45.3092
RightForeArm  20.6249 5.60943 8.392
RightHand  -0.0227653 2.88619 -0.539299
LeftUpLeg  -2.15052 13.8532 1.18724
LeftLeg  19.2328 4.89832 2.25345
LeftFoot  -9.03858 0.0687621 -0.738834
LeftToes  9.86798e-010 -1.28139e-010 1.4132e-011
